<?xml version="1.0" standalone="no"?>
<!DOCTYPE svg PUBLIC "-//W3C//DTD SVG 20010904//EN"
 "http://www.w3.org/TR/2001/REC-SVG-20010904/DTD/svg10.dtd">
<svg version="1.0" xmlns="http://www.w3.org/2000/svg"
 width="500.000000pt" height="500.000000pt" viewBox="0 0 500.000000 500.000000"
 preserveAspectRatio="xMidYMid meet">

<g transform="translate(0.000000,500.000000) scale(0.100000,-0.100000)"
fill="#000000" stroke="none">
<path d="M1480 4163 c-49 -7 -146 -46 -195 -78 -71 -45 -149 -134 -185 -213
-18 -37 -35 -74 -40 -82 -6 -13 -47 -15 -259 -18 l-251 -2 0 -130 0 -130 241
0 c238 0 279 -5 279 -34 0 -7 16 -45 36 -84 135 -272 495 -369 750 -204 84 55
160 140 195 219 17 38 34 75 38 83 7 13 150 15 1180 18 l1172 2 -3 128 -3 127
-1169 5 c-1026 4 -1170 7 -1176 20 -5 8 -23 47 -41 85 -61 131 -198 241 -346
280 -53 14 -163 18 -223 8z m196 -278 c18 -7 51 -30 74 -52 138 -124 113 -338
-49 -427 -188 -102 -408 42 -388 254 16 181 196 293 363 225z"/>
<path d="M3473 3016 c-155 -38 -274 -137 -349 -290 l-46 -96 -1264 0 -1264 0
0 -130 0 -130 1256 0 c846 0 1262 -3 1275 -10 10 -6 19 -17 19 -24 0 -7 16
-45 35 -84 63 -124 209 -240 345 -271 65 -15 196 -13 259 4 158 42 300 167
357 315 9 25 24 51 32 58 11 8 60 12 164 12 l148 0 0 130 0 129 -156 3 c-127
2 -158 6 -164 18 -5 8 -23 47 -41 85 -63 136 -211 253 -357 284 -68 14 -183
13 -249 -3z m242 -276 c49 -22 100 -71 128 -124 16 -31 22 -59 22 -116 0 -66
-4 -82 -31 -130 -58 -101 -176 -156 -283 -130 -189 45 -270 250 -164 412 68
102 211 141 328 88z"/>
<path d="M2168 1888 c-122 -12 -207 -50 -296 -133 -68 -63 -115 -130 -138
-199 -9 -25 -21 -49 -27 -53 -7 -4 -264 -6 -572 -5 -308 2 -566 -1 -573 -6 -9
-6 -12 -40 -10 -133 l3 -124 575 -5 575 -5 44 -89 c119 -242 367 -355 621
-285 166 45 288 155 352 314 l24 60 847 3 847 2 0 129 0 128 -37 7 c-21 3
-403 6 -850 6 l-811 0 -12 38 c-39 122 -146 239 -273 302 -93 45 -179 60 -289
48z m139 -273 c107 -32 185 -139 185 -255 0 -148 -113 -260 -261 -260 -218 1
-344 230 -223 408 35 53 74 82 136 104 63 22 98 22 163 3z"/>
</g>
</svg>
