<?xml version="1.0" standalone="no"?>
<!DOCTYPE svg PUBLIC "-//W3C//DTD SVG 20010904//EN"
 "http://www.w3.org/TR/2001/REC-SVG-20010904/DTD/svg10.dtd">
<svg version="1.0" xmlns="http://www.w3.org/2000/svg"
 width="840.000000pt" height="881.000000pt" viewBox="0 0 840.000000 881.000000"
 preserveAspectRatio="xMidYMid meet">

<g transform="translate(0.000000,881.000000) scale(0.100000,-0.100000)"
fill="#000000" stroke="none">
<path d="M2810 8394 c-25 -3 -101 -14 -169 -25 -462 -73 -924 -269 -1299 -551
-203 -153 -502 -470 -647 -688 -437 -656 -589 -1417 -436 -2176 56 -279 131
-491 270 -759 140 -272 218 -384 414 -593 239 -255 439 -425 640 -544 483
-286 966 -421 1507 -421 521 0 996 126 1445 383 67 39 127 70 133 70 6 0 526
-512 1154 -1138 1226 -1221 1421 -1411 1510 -1478 67 -49 122 -64 241 -64 154
0 241 39 378 168 108 102 201 222 225 294 14 40 19 82 19 168 0 169 -9 188
-162 356 -70 77 -666 679 -1325 1340 l-1199 1201 52 89 c231 399 369 814 400
1204 14 179 6 552 -16 707 -58 412 -255 909 -492 1240 -124 174 -428 487 -623
642 -274 219 -641 395 -1024 492 -257 65 -385 81 -681 84 -148 2 -290 1 -315
-1z m574 -939 c426 -64 787 -252 1103 -572 255 -259 415 -542 502 -889 37
-148 51 -272 51 -458 0 -575 -172 -995 -571 -1395 -356 -356 -741 -533 -1245
-572 -337 -26 -678 40 -989 191 -519 251 -901 718 -1045 1275 -77 297 -78 650
-5 954 61 249 235 595 392 776 80 92 212 221 293 285 288 229 666 382 1035
420 116 11 353 4 479 -15z"/>
</g>
</svg>
